<svg width="405" height="110" viewBox="0 0 405 110" fill="none" xmlns="http://www.w3.org/2000/svg">
<path fill-rule="evenodd" clip-rule="evenodd" d="M404.342 106.494H393.339V80.7371C393.339 75.9863 392.414 72.2144 386.964 72.2144C382.987 72.2144 379.287 74.2824 376.42 76.5228C376.515 76.8805 376.515 77.5081 376.515 78.0431V106.494H365.423V80.9207C365.423 76.1635 364.497 72.2144 359.131 72.2144C355.16 72.2144 351.46 74.2824 348.594 76.5228V106.494H337.5V64.0462H346.838L347.951 68.7172C352.756 65.1225 357.746 63.0609 362.833 63.0609C368.289 63.0609 372.264 65.4786 374.297 69.4326C379.383 65.2151 385.113 63.0609 389.919 63.0609C397.409 63.0609 404.342 66.5597 404.342 77.6854V106.494Z" fill="#4DA244"/>
<path fill-rule="evenodd" clip-rule="evenodd" d="M198.17 106.494H185.227L169.692 86.7531L169.51 106.494H158.416V42.9627H169.51V78.4955L183.748 64.0467H196.6L178.664 82.2642L198.17 106.494Z" fill="#4DA244"/>
<path fill-rule="evenodd" clip-rule="evenodd" d="M233.039 95.2798V78.4963C233.039 67.3675 226.478 63.0638 215.655 63.0638C209.833 63.0638 204.381 63.9597 198.552 67.73L202.158 74.461C204.932 72.8433 208.629 71.3182 213.436 71.3182C218.059 71.3182 221.756 73.3814 221.756 78.4963V79.5727L213.99 79.8457C202.803 80.2018 195.686 84.9558 195.686 93.7516C195.686 102.097 201.975 107.389 210.014 107.389C215.843 107.389 219.816 105.237 222.682 102.725L224.531 106.495H233.87C233.225 104.518 233.039 101.377 233.039 95.2798ZM221.757 96.1693C220.28 97.4324 217.784 98.8617 213.902 98.8617C209.278 98.8617 206.783 96.444 206.783 92.9435C206.783 89.3553 209.463 87.3783 215.473 87.1995L221.757 87.0206V96.1693Z" fill="#4DA244"/>
<path fill-rule="evenodd" clip-rule="evenodd" d="M256.534 105.236C253.3 106.94 250.434 107.387 247.938 107.387C240.635 107.387 237.859 103.35 237.859 98.0544V42.9628H248.953V93.2988C248.953 96.4431 249.601 97.6983 251.911 97.6983C252.652 97.6983 253.576 97.6121 255.146 97.2496L256.534 105.236Z" fill="#4DA244"/>
<path fill-rule="evenodd" clip-rule="evenodd" d="M292.549 95.2798V78.4963C292.549 67.3675 285.984 63.0638 275.165 63.0638C269.339 63.0638 263.887 63.9597 258.06 67.73L261.666 74.461C264.44 72.8433 268.137 71.3182 272.946 71.3182C277.567 71.3182 281.266 73.3814 281.266 78.4963V79.5727L273.498 79.8457C262.313 80.2018 255.195 84.9558 255.195 93.7516C255.195 102.097 261.482 107.389 269.524 107.389C275.349 107.389 279.328 105.237 282.194 102.725L284.039 106.495H293.379C292.731 104.518 292.549 101.377 292.549 95.2798ZM281.267 96.1693C279.788 97.4324 277.291 98.8617 273.408 98.8617C268.785 98.8617 266.292 96.444 266.292 92.9435C266.292 89.3553 268.971 87.3783 274.981 87.1995L281.267 87.0206V96.1693Z" fill="#4DA244"/>
<path fill-rule="evenodd" clip-rule="evenodd" d="M332.683 95.2798V78.4963C332.683 67.3675 326.119 63.0638 315.302 63.0638C309.476 63.0638 304.023 63.9597 298.196 67.73L301.801 74.461C304.575 72.8433 308.271 71.3182 313.08 71.3182C317.702 71.3182 321.4 73.3814 321.4 78.4963V79.5727L313.637 79.8457C302.451 80.2018 295.33 84.9558 295.33 93.7516C295.33 102.097 301.62 107.389 309.658 107.389C315.487 107.389 319.461 105.237 322.327 102.725L324.173 106.495H333.513C332.869 104.518 332.683 101.377 332.683 95.2798ZM321.4 96.1693C319.921 97.4324 317.427 98.8617 313.543 98.8617C308.921 98.8617 306.425 96.444 306.425 92.9435C306.425 89.3553 309.104 87.3783 315.116 87.1995L321.4 87.0206V96.1693Z" fill="#4DA244"/>
<path fill-rule="evenodd" clip-rule="evenodd" d="M77.708 82.8146C56.3398 108.074 31.4343 98.0092 40.9141 84.7133C23.4237 97.067 47.8306 124.888 77.708 82.8146ZM112.276 90.4446C89.6557 125.709 52.4093 106.898 81.7997 78.3736C63.61 102.298 95.8977 115.336 112.276 90.4446ZM44.9449 68.9678C41.2086 72.4555 38.8033 74.7806 39.4745 81.4956C44.7327 76.0309 44.2161 72.0914 44.9449 68.9678ZM29.8927 79.5218C11.374 94.7467 -12.314 77.9313 7.51922 57.5755C-5.73639 76.1667 15.9872 85.1301 30.5261 77.4809C32.4576 72.7924 37.5907 68.3834 45.9205 64.2633L62.3317 53.5433C53.6449 59.265 57.707 69.9196 48.6286 76.2354L31.6745 88.6737C29.8598 85.5166 29.2659 82.4665 29.8927 79.5218ZM66.2967 91.1217L59.3555 95.0086C79.6066 82.0481 73.7233 46.081 96.0211 33.1397C103.556 28.7593 113.233 23.8425 125.056 18.389C80.4951 40.7218 90.5918 76.7272 66.2967 91.1217ZM86.6235 67.0675C106.207 53.2367 108.819 25.2845 144.118 10.0436C156.747 4.98301 157.298 4.59975 168.651 0.85022C127.883 17.9355 119.989 47.7338 100.587 60.5841C124.651 54.8991 147.867 77.3181 98.3211 107.557C129.99 84.3013 112.389 59.2028 91.9837 64.9069L86.6235 67.0675ZM49.4496 95.8933C62.9207 87.9263 55.7097 58.5512 71.6141 47.7322L83.5305 40.3657C64.7864 56.7499 73.4584 80.9287 54.0463 93.3526L49.4496 95.8933Z" fill="#4DA244"/>
</svg>
